# xmcd CD database file
#
# Track frame offsets:
#	150
#	14892
#	29222
#	44817
#	59455
#	74000
#	89837
#	104145
#	119312
#	134645
#	149097
#	164470
#	180407
#	196152
#	212100
#	226747
#	242055
#	258162
#	272220
#	288055
#	303482
#	319530
#
# Disc length: 4476 seconds
#
# Revision: 0
# Processed by: cddbd v1.5.1PL0 Copyright (c) Steve Scherf et al.
# Submitted via: CDex 1.51
#
DISCID=66117a16
DTITLE=Ernest V. Stoneman - Ernest Stoneman: 1928 Edison Recordings
DYEAR=1900
DGENRE=Country
TTITLE0=Remember the Poor Tramp Has to Live
TTITLE1=The Prisoner's Lament
TTITLE2=All Go Hungry Hash House
TTITLE3=There'll Come a Time
TTITLE4=Sally Goodin'
TTITLE5=Careless Love
TTITLE6=The Eastbound Train
TTITLE7=The Unlucky Road to Washington
TTITLE8=The Old Maid and the Burglar
TTITLE9=Down on the Banks of the Ohio
TTITLE10=We Parted at the River
TTITLE11=It's Sinful to Flirt
TTITLE12=He Was Nailed to the Cross for Me
TTITLE13=When the Redeemed Are Gathering In
TTITLE14=Goodbye Dear Old Stepstone
TTITLE15=Fallen by the Wayside
TTITLE16=My Mother and My Sweetheart
TTITLE17=Midnight on the Stormy Deep
TTITLE18=The Pretty Mohea
TTITLE19=Watchman Ring That Bell
TTITLE20=I Remember Calvary
TTITLE21=He Is Coming After Me
EXTD=
EXTT0=
EXTT1=
EXTT2=
EXTT3=
EXTT4=
EXTT5=
EXTT6=
EXTT7=
EXTT8=
EXTT9=
EXTT10=
EXTT11=
EXTT12=
EXTT13=
EXTT14=
EXTT15=
EXTT16=
EXTT17=
EXTT18=
EXTT19=
EXTT20=
EXTT21=
PLAYORDER=
